<mxfile host="app.diagrams.net" modified="2022-02-01T09:33:02.894Z" agent="5.0 (Windows NT 10.0; Win64; x64) AppleWebKit/537.36 (KHTML, like Gecko) Chrome/97.0.4692.99 Safari/537.36" etag="X7gAP8MZ6A5YbOEDgaKo" version="16.2.7" type="github">
  <diagram id="pc-rSTr5fRfuh4w3DdU0" name="Page-1">
    <mxGraphModel dx="865" dy="453" grid="1" gridSize="10" guides="1" tooltips="1" connect="1" arrows="1" fold="1" page="1" pageScale="1" pageWidth="827" pageHeight="1169" math="0" shadow="0">
      <root>
        <mxCell id="0" />
        <mxCell id="1" parent="0" />
        <mxCell id="_70oP3KHqjQjDuD16ico-1" value="" style="edgeStyle=orthogonalEdgeStyle;rounded=0;orthogonalLoop=1;jettySize=auto;html=1;fontColor=#828282;strokeColor=#FF0000;fillColor=#FF0000;entryX=0.5;entryY=0;entryDx=0;entryDy=0;" parent="1" source="_70oP3KHqjQjDuD16ico-2" target="_70oP3KHqjQjDuD16ico-14" edge="1">
          <mxGeometry relative="1" as="geometry">
            <mxPoint x="260" y="400.01" as="targetPoint" />
          </mxGeometry>
        </mxCell>
        <mxCell id="_70oP3KHqjQjDuD16ico-2" value="Registrarse" style="rounded=1;whiteSpace=wrap;html=1;fontSize=12;glass=0;strokeWidth=1;shadow=0;strokeColor=#FF0000;" parent="1" vertex="1">
          <mxGeometry x="320" y="200" width="120" height="40" as="geometry" />
        </mxCell>
        <mxCell id="_70oP3KHqjQjDuD16ico-3" value="" style="edgeStyle=orthogonalEdgeStyle;rounded=0;orthogonalLoop=1;jettySize=auto;html=1;fontColor=#828282;strokeColor=#FF0000;fillColor=#FF0000;" parent="1" source="_70oP3KHqjQjDuD16ico-4" target="_70oP3KHqjQjDuD16ico-12" edge="1">
          <mxGeometry relative="1" as="geometry" />
        </mxCell>
        <mxCell id="_70oP3KHqjQjDuD16ico-4" value="" style="ellipse;whiteSpace=wrap;html=1;strokeColor=#FF0000;fillColor=#FF0000;" parent="1" vertex="1">
          <mxGeometry x="360" y="29.99" width="40" height="50" as="geometry" />
        </mxCell>
        <mxCell id="_70oP3KHqjQjDuD16ico-5" value="" style="endArrow=classic;html=1;rounded=0;exitX=0.5;exitY=1;exitDx=0;exitDy=0;entryX=0.5;entryY=0;entryDx=0;entryDy=0;strokeColor=#FF0000;fillColor=#FF0000;" parent="1" source="_70oP3KHqjQjDuD16ico-12" target="_70oP3KHqjQjDuD16ico-2" edge="1">
          <mxGeometry width="50" height="50" relative="1" as="geometry">
            <mxPoint x="380" y="240" as="sourcePoint" />
            <mxPoint x="418" y="180.01" as="targetPoint" />
          </mxGeometry>
        </mxCell>
        <mxCell id="_70oP3KHqjQjDuD16ico-6" value="&lt;font color=&quot;#828282&quot;&gt;Estat inicial&lt;/font&gt;" style="text;html=1;align=center;verticalAlign=middle;resizable=0;points=[];autosize=1;strokeColor=none;fillColor=none;" parent="1" vertex="1">
          <mxGeometry x="480" y="44.99999999999999" width="80" height="20" as="geometry" />
        </mxCell>
        <mxCell id="_70oP3KHqjQjDuD16ico-11" value="&lt;font color=&quot;#828282&quot;&gt;Acció&lt;/font&gt;" style="text;html=1;align=center;verticalAlign=middle;resizable=0;points=[];autosize=1;strokeColor=none;fillColor=none;" parent="1" vertex="1">
          <mxGeometry x="210" y="210" width="50" height="20" as="geometry" />
        </mxCell>
        <mxCell id="_70oP3KHqjQjDuD16ico-12" value="" style="rhombus;whiteSpace=wrap;html=1;fillColor=#FFFFFF;strokeColor=#FF0000;" parent="1" vertex="1">
          <mxGeometry x="357.5" y="120" width="45" height="40" as="geometry" />
        </mxCell>
        <mxCell id="_70oP3KHqjQjDuD16ico-13" value="&lt;font color=&quot;#828282&quot;&gt;Decisió (Crear compte)&lt;/font&gt;" style="text;html=1;align=center;verticalAlign=middle;resizable=0;points=[];autosize=1;strokeColor=none;fillColor=none;" parent="1" vertex="1">
          <mxGeometry x="511" y="130" width="140" height="20" as="geometry" />
        </mxCell>
        <mxCell id="_70oP3KHqjQjDuD16ico-14" value="Introduir les seves dades" style="rounded=1;whiteSpace=wrap;html=1;fontSize=12;glass=0;strokeWidth=1;shadow=0;strokeColor=#FF0000;" parent="1" vertex="1">
          <mxGeometry x="320" y="280.02" width="120" height="40" as="geometry" />
        </mxCell>
        <mxCell id="_70oP3KHqjQjDuD16ico-17" value="&lt;font color=&quot;#828282&quot;&gt;Acció&lt;/font&gt;" style="text;html=1;align=center;verticalAlign=middle;resizable=0;points=[];autosize=1;strokeColor=none;fillColor=none;" parent="1" vertex="1">
          <mxGeometry x="210" y="289.97" width="50" height="20" as="geometry" />
        </mxCell>
        <mxCell id="_70oP3KHqjQjDuD16ico-22" value="" style="edgeStyle=orthogonalEdgeStyle;rounded=0;orthogonalLoop=1;jettySize=auto;html=1;fontColor=#828282;strokeColor=#9B9B9B;fillColor=#FF0000;exitX=0;exitY=0.5;exitDx=0;exitDy=0;dashed=1;" parent="1" source="_70oP3KHqjQjDuD16ico-14" target="_70oP3KHqjQjDuD16ico-17" edge="1">
          <mxGeometry relative="1" as="geometry">
            <mxPoint x="590" y="440" as="sourcePoint" />
            <mxPoint x="670" y="440" as="targetPoint" />
          </mxGeometry>
        </mxCell>
        <mxCell id="_70oP3KHqjQjDuD16ico-23" value="" style="edgeStyle=orthogonalEdgeStyle;rounded=0;orthogonalLoop=1;jettySize=auto;html=1;fontColor=#828282;strokeColor=#9B9B9B;fillColor=#FF0000;exitX=0;exitY=0.5;exitDx=0;exitDy=0;dashed=1;" parent="1" source="_70oP3KHqjQjDuD16ico-2" target="_70oP3KHqjQjDuD16ico-11" edge="1">
          <mxGeometry relative="1" as="geometry">
            <mxPoint x="210" y="420" as="sourcePoint" />
            <mxPoint x="122" y="300" as="targetPoint" />
          </mxGeometry>
        </mxCell>
        <mxCell id="_70oP3KHqjQjDuD16ico-24" value="" style="edgeStyle=orthogonalEdgeStyle;rounded=0;orthogonalLoop=1;jettySize=auto;html=1;fontColor=#828282;strokeColor=#9B9B9B;fillColor=#FF0000;exitX=1;exitY=0.5;exitDx=0;exitDy=0;dashed=1;" parent="1" source="_70oP3KHqjQjDuD16ico-12" target="_70oP3KHqjQjDuD16ico-13" edge="1">
          <mxGeometry relative="1" as="geometry">
            <mxPoint x="520" y="100" as="sourcePoint" />
            <mxPoint x="440" y="100" as="targetPoint" />
          </mxGeometry>
        </mxCell>
        <mxCell id="_70oP3KHqjQjDuD16ico-25" value="" style="edgeStyle=orthogonalEdgeStyle;rounded=0;orthogonalLoop=1;jettySize=auto;html=1;fontColor=#828282;strokeColor=#9B9B9B;fillColor=#FF0000;exitX=1;exitY=0.5;exitDx=0;exitDy=0;dashed=1;" parent="1" source="_70oP3KHqjQjDuD16ico-4" target="_70oP3KHqjQjDuD16ico-6" edge="1">
          <mxGeometry relative="1" as="geometry">
            <mxPoint x="412.5" y="54.620000000000005" as="sourcePoint" />
            <mxPoint x="600" y="54.620000000000005" as="targetPoint" />
          </mxGeometry>
        </mxCell>
        <mxCell id="_70oP3KHqjQjDuD16ico-26" value="" style="ellipse;whiteSpace=wrap;html=1;strokeColor=#FF0000;fillColor=#FF0000;" parent="1" vertex="1">
          <mxGeometry x="360" y="370" width="40" height="50" as="geometry" />
        </mxCell>
        <mxCell id="_70oP3KHqjQjDuD16ico-29" value="" style="ellipse;whiteSpace=wrap;html=1;strokeColor=#FF0000;fillColor=none;" parent="1" vertex="1">
          <mxGeometry x="350" y="360" width="60" height="70" as="geometry" />
        </mxCell>
        <mxCell id="Wh9fC4EStsyl4PK7GZHd-1" value="" style="edgeStyle=orthogonalEdgeStyle;rounded=0;orthogonalLoop=1;jettySize=auto;html=1;fontColor=#828282;strokeColor=#FF0000;fillColor=#FF0000;entryX=0.5;entryY=0;entryDx=0;entryDy=0;" edge="1" parent="1" source="Wh9fC4EStsyl4PK7GZHd-2" target="Wh9fC4EStsyl4PK7GZHd-5">
          <mxGeometry relative="1" as="geometry">
            <mxPoint x="440" y="990.01" as="targetPoint" />
          </mxGeometry>
        </mxCell>
        <mxCell id="Wh9fC4EStsyl4PK7GZHd-2" value="Iniciar sessió" style="rounded=1;whiteSpace=wrap;html=1;fontSize=12;glass=0;strokeWidth=1;shadow=0;strokeColor=#FF0000;" vertex="1" parent="1">
          <mxGeometry x="320" y="680" width="120" height="40" as="geometry" />
        </mxCell>
        <mxCell id="Wh9fC4EStsyl4PK7GZHd-3" value="" style="endArrow=classic;html=1;rounded=0;entryX=0.5;entryY=0;entryDx=0;entryDy=0;strokeColor=#FF0000;fillColor=#FF0000;exitX=0.5;exitY=1;exitDx=0;exitDy=0;" edge="1" parent="1" target="Wh9fC4EStsyl4PK7GZHd-2" source="Wh9fC4EStsyl4PK7GZHd-22">
          <mxGeometry width="50" height="50" relative="1" as="geometry">
            <mxPoint x="320" y="750" as="sourcePoint" />
            <mxPoint x="672" y="770.01" as="targetPoint" />
          </mxGeometry>
        </mxCell>
        <mxCell id="Wh9fC4EStsyl4PK7GZHd-4" value="&lt;font&gt;Acció&lt;/font&gt;" style="text;html=1;align=center;verticalAlign=middle;resizable=0;points=[];autosize=1;strokeColor=none;fillColor=none;fontColor=#9B9B9B;" vertex="1" parent="1">
          <mxGeometry x="210" y="690" width="50" height="20" as="geometry" />
        </mxCell>
        <mxCell id="Wh9fC4EStsyl4PK7GZHd-5" value="Introduir les seves dades" style="rounded=1;whiteSpace=wrap;html=1;fontSize=12;glass=0;strokeWidth=1;shadow=0;strokeColor=#FF0000;" vertex="1" parent="1">
          <mxGeometry x="320" y="760" width="120" height="40" as="geometry" />
        </mxCell>
        <mxCell id="Wh9fC4EStsyl4PK7GZHd-6" value="&lt;font&gt;Acció&lt;/font&gt;" style="text;html=1;align=center;verticalAlign=middle;resizable=0;points=[];autosize=1;strokeColor=none;fillColor=none;fontColor=#9B9B9B;" vertex="1" parent="1">
          <mxGeometry x="210" y="770" width="50" height="20" as="geometry" />
        </mxCell>
        <mxCell id="Wh9fC4EStsyl4PK7GZHd-7" value="" style="edgeStyle=elbowEdgeStyle;elbow=vertical;endArrow=classic;html=1;rounded=0;exitX=0.5;exitY=1;exitDx=0;exitDy=0;strokeColor=#FF0000;entryX=0.5;entryY=0;entryDx=0;entryDy=0;" edge="1" parent="1" source="Wh9fC4EStsyl4PK7GZHd-5" target="Wh9fC4EStsyl4PK7GZHd-27">
          <mxGeometry width="50" height="50" relative="1" as="geometry">
            <mxPoint x="210" y="1020" as="sourcePoint" />
            <mxPoint x="380" y="890" as="targetPoint" />
            <Array as="points">
              <mxPoint x="400" y="830" />
              <mxPoint x="290" y="1090" />
            </Array>
          </mxGeometry>
        </mxCell>
        <mxCell id="Wh9fC4EStsyl4PK7GZHd-8" value="" style="edgeStyle=orthogonalEdgeStyle;rounded=0;orthogonalLoop=1;jettySize=auto;html=1;fontColor=#828282;strokeColor=#9B9B9B;fillColor=#FF0000;dashed=1;exitX=0;exitY=0.5;exitDx=0;exitDy=0;" edge="1" parent="1" source="Wh9fC4EStsyl4PK7GZHd-5" target="Wh9fC4EStsyl4PK7GZHd-6">
          <mxGeometry relative="1" as="geometry">
            <mxPoint x="280" y="780" as="sourcePoint" />
            <mxPoint x="450" y="980" as="targetPoint" />
          </mxGeometry>
        </mxCell>
        <mxCell id="Wh9fC4EStsyl4PK7GZHd-9" value="" style="edgeStyle=orthogonalEdgeStyle;rounded=0;orthogonalLoop=1;jettySize=auto;html=1;fontColor=#828282;strokeColor=#9B9B9B;fillColor=#FF0000;exitX=0;exitY=0.5;exitDx=0;exitDy=0;dashed=1;" edge="1" parent="1" source="Wh9fC4EStsyl4PK7GZHd-2" target="Wh9fC4EStsyl4PK7GZHd-4">
          <mxGeometry relative="1" as="geometry">
            <mxPoint x="500" y="889.61" as="sourcePoint" />
            <mxPoint x="580" y="890" as="targetPoint" />
          </mxGeometry>
        </mxCell>
        <mxCell id="Wh9fC4EStsyl4PK7GZHd-13" value="" style="edgeStyle=orthogonalEdgeStyle;rounded=0;orthogonalLoop=1;jettySize=auto;html=1;fontColor=#828282;strokeColor=#FF0000;fillColor=#FF0000;entryX=0.5;entryY=0;entryDx=0;entryDy=0;exitX=0.5;exitY=1;exitDx=0;exitDy=0;" edge="1" parent="1" source="_70oP3KHqjQjDuD16ico-14" target="_70oP3KHqjQjDuD16ico-29">
          <mxGeometry relative="1" as="geometry">
            <mxPoint x="390" y="369.99999999999994" as="targetPoint" />
            <mxPoint x="390" y="329.96" as="sourcePoint" />
            <Array as="points">
              <mxPoint x="380" y="350" />
              <mxPoint x="380" y="350" />
            </Array>
          </mxGeometry>
        </mxCell>
        <mxCell id="Wh9fC4EStsyl4PK7GZHd-15" value="&lt;font color=&quot;#828282&quot;&gt;Estat final&lt;br&gt;&lt;/font&gt;" style="text;html=1;align=center;verticalAlign=middle;resizable=0;points=[];autosize=1;strokeColor=none;fillColor=none;" vertex="1" parent="1">
          <mxGeometry x="464" y="385" width="70" height="20" as="geometry" />
        </mxCell>
        <mxCell id="Wh9fC4EStsyl4PK7GZHd-16" value="" style="edgeStyle=orthogonalEdgeStyle;rounded=0;orthogonalLoop=1;jettySize=auto;html=1;fontColor=#828282;strokeColor=#9B9B9B;fillColor=#FF0000;exitX=1;exitY=0.5;exitDx=0;exitDy=0;dashed=1;entryX=0;entryY=0.5;entryDx=0;entryDy=0;entryPerimeter=0;" edge="1" parent="1" source="_70oP3KHqjQjDuD16ico-29" target="Wh9fC4EStsyl4PK7GZHd-15">
          <mxGeometry relative="1" as="geometry">
            <mxPoint x="412.5" y="399.5" as="sourcePoint" />
            <mxPoint x="520" y="395" as="targetPoint" />
            <Array as="points" />
          </mxGeometry>
        </mxCell>
        <mxCell id="Wh9fC4EStsyl4PK7GZHd-19" value="" style="edgeStyle=orthogonalEdgeStyle;rounded=0;orthogonalLoop=1;jettySize=auto;html=1;fontColor=#828282;strokeColor=#FF0000;fillColor=#FF0000;" edge="1" parent="1" source="Wh9fC4EStsyl4PK7GZHd-20" target="Wh9fC4EStsyl4PK7GZHd-22">
          <mxGeometry relative="1" as="geometry" />
        </mxCell>
        <mxCell id="Wh9fC4EStsyl4PK7GZHd-20" value="" style="ellipse;whiteSpace=wrap;html=1;strokeColor=#FF0000;fillColor=#FF0000;" vertex="1" parent="1">
          <mxGeometry x="360" y="510" width="40" height="50" as="geometry" />
        </mxCell>
        <mxCell id="Wh9fC4EStsyl4PK7GZHd-21" value="&lt;font color=&quot;#828282&quot;&gt;Estat inicial&lt;/font&gt;" style="text;html=1;align=center;verticalAlign=middle;resizable=0;points=[];autosize=1;strokeColor=none;fillColor=none;" vertex="1" parent="1">
          <mxGeometry x="480" y="522" width="80" height="20" as="geometry" />
        </mxCell>
        <mxCell id="Wh9fC4EStsyl4PK7GZHd-22" value="" style="rhombus;whiteSpace=wrap;html=1;fillColor=#FFFFFF;strokeColor=#FF0000;" vertex="1" parent="1">
          <mxGeometry x="357.5" y="600.01" width="45" height="40" as="geometry" />
        </mxCell>
        <mxCell id="Wh9fC4EStsyl4PK7GZHd-23" value="&lt;font color=&quot;#828282&quot;&gt;Decisió (Iniciar sessió)&lt;/font&gt;" style="text;html=1;align=center;verticalAlign=middle;resizable=0;points=[];autosize=1;strokeColor=none;fillColor=none;" vertex="1" parent="1">
          <mxGeometry x="511" y="607" width="140" height="20" as="geometry" />
        </mxCell>
        <mxCell id="Wh9fC4EStsyl4PK7GZHd-24" value="" style="edgeStyle=orthogonalEdgeStyle;rounded=0;orthogonalLoop=1;jettySize=auto;html=1;fontColor=#828282;strokeColor=#9B9B9B;fillColor=#FF0000;exitX=1;exitY=0.5;exitDx=0;exitDy=0;dashed=1;" edge="1" parent="1" target="Wh9fC4EStsyl4PK7GZHd-23">
          <mxGeometry relative="1" as="geometry">
            <mxPoint x="402.5" y="617" as="sourcePoint" />
            <mxPoint x="440" y="577" as="targetPoint" />
          </mxGeometry>
        </mxCell>
        <mxCell id="Wh9fC4EStsyl4PK7GZHd-25" value="" style="edgeStyle=orthogonalEdgeStyle;rounded=0;orthogonalLoop=1;jettySize=auto;html=1;fontColor=#828282;strokeColor=#9B9B9B;fillColor=#FF0000;exitX=1;exitY=0.5;exitDx=0;exitDy=0;dashed=1;" edge="1" parent="1" target="Wh9fC4EStsyl4PK7GZHd-21">
          <mxGeometry relative="1" as="geometry">
            <mxPoint x="400" y="531.99" as="sourcePoint" />
            <mxPoint x="600" y="531.62" as="targetPoint" />
          </mxGeometry>
        </mxCell>
        <mxCell id="Wh9fC4EStsyl4PK7GZHd-26" value="" style="ellipse;whiteSpace=wrap;html=1;strokeColor=#FF0000;fillColor=#FF0000;" vertex="1" parent="1">
          <mxGeometry x="360" y="850" width="40" height="50" as="geometry" />
        </mxCell>
        <mxCell id="Wh9fC4EStsyl4PK7GZHd-27" value="" style="ellipse;whiteSpace=wrap;html=1;strokeColor=#FF0000;fillColor=none;" vertex="1" parent="1">
          <mxGeometry x="350" y="840" width="60" height="70" as="geometry" />
        </mxCell>
        <mxCell id="Wh9fC4EStsyl4PK7GZHd-28" value="&lt;font color=&quot;#828282&quot;&gt;Estat final&lt;br&gt;&lt;/font&gt;" style="text;html=1;align=center;verticalAlign=middle;resizable=0;points=[];autosize=1;strokeColor=none;fillColor=none;" vertex="1" parent="1">
          <mxGeometry x="464" y="865" width="70" height="20" as="geometry" />
        </mxCell>
        <mxCell id="Wh9fC4EStsyl4PK7GZHd-29" value="" style="edgeStyle=orthogonalEdgeStyle;rounded=0;orthogonalLoop=1;jettySize=auto;html=1;fontColor=#828282;strokeColor=#9B9B9B;fillColor=#FF0000;exitX=1;exitY=0.5;exitDx=0;exitDy=0;dashed=1;entryX=0;entryY=0.5;entryDx=0;entryDy=0;entryPerimeter=0;" edge="1" parent="1" source="Wh9fC4EStsyl4PK7GZHd-27" target="Wh9fC4EStsyl4PK7GZHd-28">
          <mxGeometry relative="1" as="geometry">
            <mxPoint x="412.5" y="879.5" as="sourcePoint" />
            <mxPoint x="520" y="875" as="targetPoint" />
            <Array as="points" />
          </mxGeometry>
        </mxCell>
        <mxCell id="Wh9fC4EStsyl4PK7GZHd-30" value="" style="shape=link;html=1;rounded=0;" edge="1" parent="1">
          <mxGeometry width="100" relative="1" as="geometry">
            <mxPoint y="480" as="sourcePoint" />
            <mxPoint x="827" y="480" as="targetPoint" />
          </mxGeometry>
        </mxCell>
        <mxCell id="Wh9fC4EStsyl4PK7GZHd-31" value="" style="shape=link;html=1;rounded=0;" edge="1" parent="1">
          <mxGeometry width="100" relative="1" as="geometry">
            <mxPoint y="960" as="sourcePoint" />
            <mxPoint x="827" y="960" as="targetPoint" />
          </mxGeometry>
        </mxCell>
        <mxCell id="Wh9fC4EStsyl4PK7GZHd-32" value="" style="edgeStyle=orthogonalEdgeStyle;rounded=0;orthogonalLoop=1;jettySize=auto;html=1;fontColor=#828282;strokeColor=#FF0000;fillColor=#FF0000;entryX=0.5;entryY=0;entryDx=0;entryDy=0;" edge="1" parent="1" source="Wh9fC4EStsyl4PK7GZHd-33" target="Wh9fC4EStsyl4PK7GZHd-36">
          <mxGeometry relative="1" as="geometry">
            <mxPoint x="440" y="1470.01" as="targetPoint" />
          </mxGeometry>
        </mxCell>
        <mxCell id="Wh9fC4EStsyl4PK7GZHd-33" value="Iniciar sessió" style="rounded=1;whiteSpace=wrap;html=1;fontSize=12;glass=0;strokeWidth=1;shadow=0;strokeColor=#FF0000;" vertex="1" parent="1">
          <mxGeometry x="320" y="1160" width="120" height="40" as="geometry" />
        </mxCell>
        <mxCell id="Wh9fC4EStsyl4PK7GZHd-34" value="" style="endArrow=classic;html=1;rounded=0;entryX=0.5;entryY=0;entryDx=0;entryDy=0;strokeColor=#FF0000;fillColor=#FF0000;exitX=0.5;exitY=1;exitDx=0;exitDy=0;" edge="1" parent="1" source="Wh9fC4EStsyl4PK7GZHd-44" target="Wh9fC4EStsyl4PK7GZHd-33">
          <mxGeometry width="50" height="50" relative="1" as="geometry">
            <mxPoint x="320" y="1230" as="sourcePoint" />
            <mxPoint x="672" y="1250.01" as="targetPoint" />
          </mxGeometry>
        </mxCell>
        <mxCell id="Wh9fC4EStsyl4PK7GZHd-35" value="&lt;font&gt;Acció&lt;/font&gt;" style="text;html=1;align=center;verticalAlign=middle;resizable=0;points=[];autosize=1;strokeColor=none;fillColor=none;fontColor=#9B9B9B;" vertex="1" parent="1">
          <mxGeometry x="210" y="1170" width="50" height="20" as="geometry" />
        </mxCell>
        <mxCell id="Wh9fC4EStsyl4PK7GZHd-36" value="Introduir les seves dades" style="rounded=1;whiteSpace=wrap;html=1;fontSize=12;glass=0;strokeWidth=1;shadow=0;strokeColor=#FF0000;" vertex="1" parent="1">
          <mxGeometry x="320" y="1240" width="120" height="40" as="geometry" />
        </mxCell>
        <mxCell id="Wh9fC4EStsyl4PK7GZHd-37" value="&lt;font&gt;Acció&lt;/font&gt;" style="text;html=1;align=center;verticalAlign=middle;resizable=0;points=[];autosize=1;strokeColor=none;fillColor=none;fontColor=#9B9B9B;" vertex="1" parent="1">
          <mxGeometry x="210" y="1250" width="50" height="20" as="geometry" />
        </mxCell>
        <mxCell id="Wh9fC4EStsyl4PK7GZHd-38" value="" style="edgeStyle=elbowEdgeStyle;elbow=vertical;endArrow=classic;html=1;rounded=0;exitX=0.5;exitY=1;exitDx=0;exitDy=0;strokeColor=#FF0000;entryX=0.5;entryY=0;entryDx=0;entryDy=0;" edge="1" parent="1" source="Wh9fC4EStsyl4PK7GZHd-36" target="Wh9fC4EStsyl4PK7GZHd-48">
          <mxGeometry width="50" height="50" relative="1" as="geometry">
            <mxPoint x="210" y="1500" as="sourcePoint" />
            <mxPoint x="380" y="1370" as="targetPoint" />
            <Array as="points">
              <mxPoint x="400" y="1310" />
              <mxPoint x="290" y="1570" />
            </Array>
          </mxGeometry>
        </mxCell>
        <mxCell id="Wh9fC4EStsyl4PK7GZHd-39" value="" style="edgeStyle=orthogonalEdgeStyle;rounded=0;orthogonalLoop=1;jettySize=auto;html=1;fontColor=#828282;strokeColor=#9B9B9B;fillColor=#FF0000;dashed=1;exitX=0;exitY=0.5;exitDx=0;exitDy=0;" edge="1" parent="1" source="Wh9fC4EStsyl4PK7GZHd-36" target="Wh9fC4EStsyl4PK7GZHd-37">
          <mxGeometry relative="1" as="geometry">
            <mxPoint x="280" y="1260" as="sourcePoint" />
            <mxPoint x="450" y="1460" as="targetPoint" />
          </mxGeometry>
        </mxCell>
        <mxCell id="Wh9fC4EStsyl4PK7GZHd-40" value="" style="edgeStyle=orthogonalEdgeStyle;rounded=0;orthogonalLoop=1;jettySize=auto;html=1;fontColor=#828282;strokeColor=#9B9B9B;fillColor=#FF0000;exitX=0;exitY=0.5;exitDx=0;exitDy=0;dashed=1;" edge="1" parent="1" source="Wh9fC4EStsyl4PK7GZHd-33" target="Wh9fC4EStsyl4PK7GZHd-35">
          <mxGeometry relative="1" as="geometry">
            <mxPoint x="500" y="1369.6100000000001" as="sourcePoint" />
            <mxPoint x="580" y="1370" as="targetPoint" />
          </mxGeometry>
        </mxCell>
        <mxCell id="Wh9fC4EStsyl4PK7GZHd-41" value="" style="edgeStyle=orthogonalEdgeStyle;rounded=0;orthogonalLoop=1;jettySize=auto;html=1;fontColor=#828282;strokeColor=#FF0000;fillColor=#FF0000;" edge="1" parent="1" source="Wh9fC4EStsyl4PK7GZHd-42" target="Wh9fC4EStsyl4PK7GZHd-44">
          <mxGeometry relative="1" as="geometry" />
        </mxCell>
        <mxCell id="Wh9fC4EStsyl4PK7GZHd-42" value="" style="ellipse;whiteSpace=wrap;html=1;strokeColor=#FF0000;fillColor=#FF0000;" vertex="1" parent="1">
          <mxGeometry x="360" y="990" width="40" height="50" as="geometry" />
        </mxCell>
        <mxCell id="Wh9fC4EStsyl4PK7GZHd-43" value="&lt;font color=&quot;#828282&quot;&gt;Estat inicial&lt;/font&gt;" style="text;html=1;align=center;verticalAlign=middle;resizable=0;points=[];autosize=1;strokeColor=none;fillColor=none;" vertex="1" parent="1">
          <mxGeometry x="480" y="1002" width="80" height="20" as="geometry" />
        </mxCell>
        <mxCell id="Wh9fC4EStsyl4PK7GZHd-44" value="" style="rhombus;whiteSpace=wrap;html=1;fillColor=#FFFFFF;strokeColor=#FF0000;" vertex="1" parent="1">
          <mxGeometry x="357.5" y="1080.01" width="45" height="40" as="geometry" />
        </mxCell>
        <mxCell id="Wh9fC4EStsyl4PK7GZHd-45" value="" style="edgeStyle=orthogonalEdgeStyle;rounded=0;orthogonalLoop=1;jettySize=auto;html=1;fontColor=#828282;strokeColor=#9B9B9B;fillColor=#FF0000;exitX=1;exitY=0.5;exitDx=0;exitDy=0;dashed=1;" edge="1" parent="1">
          <mxGeometry relative="1" as="geometry">
            <mxPoint x="402.5" y="1097" as="sourcePoint" />
            <mxPoint x="511" y="1097" as="targetPoint" />
          </mxGeometry>
        </mxCell>
        <mxCell id="Wh9fC4EStsyl4PK7GZHd-46" value="" style="edgeStyle=orthogonalEdgeStyle;rounded=0;orthogonalLoop=1;jettySize=auto;html=1;fontColor=#828282;strokeColor=#9B9B9B;fillColor=#FF0000;exitX=1;exitY=0.5;exitDx=0;exitDy=0;dashed=1;" edge="1" parent="1" target="Wh9fC4EStsyl4PK7GZHd-43">
          <mxGeometry relative="1" as="geometry">
            <mxPoint x="400" y="1011.99" as="sourcePoint" />
            <mxPoint x="600" y="1011.62" as="targetPoint" />
          </mxGeometry>
        </mxCell>
        <mxCell id="Wh9fC4EStsyl4PK7GZHd-47" value="" style="ellipse;whiteSpace=wrap;html=1;strokeColor=#FF0000;fillColor=#FF0000;" vertex="1" parent="1">
          <mxGeometry x="360" y="1330" width="40" height="50" as="geometry" />
        </mxCell>
        <mxCell id="Wh9fC4EStsyl4PK7GZHd-48" value="" style="ellipse;whiteSpace=wrap;html=1;strokeColor=#FF0000;fillColor=none;" vertex="1" parent="1">
          <mxGeometry x="350" y="1320" width="60" height="70" as="geometry" />
        </mxCell>
        <mxCell id="Wh9fC4EStsyl4PK7GZHd-49" value="&lt;font color=&quot;#828282&quot;&gt;Estat final&lt;br&gt;&lt;/font&gt;" style="text;html=1;align=center;verticalAlign=middle;resizable=0;points=[];autosize=1;strokeColor=none;fillColor=none;" vertex="1" parent="1">
          <mxGeometry x="464" y="1345" width="70" height="20" as="geometry" />
        </mxCell>
        <mxCell id="Wh9fC4EStsyl4PK7GZHd-50" value="" style="edgeStyle=orthogonalEdgeStyle;rounded=0;orthogonalLoop=1;jettySize=auto;html=1;fontColor=#828282;strokeColor=#9B9B9B;fillColor=#FF0000;exitX=1;exitY=0.5;exitDx=0;exitDy=0;dashed=1;entryX=0;entryY=0.5;entryDx=0;entryDy=0;entryPerimeter=0;" edge="1" parent="1" source="Wh9fC4EStsyl4PK7GZHd-48" target="Wh9fC4EStsyl4PK7GZHd-49">
          <mxGeometry relative="1" as="geometry">
            <mxPoint x="412.5" y="1359.5" as="sourcePoint" />
            <mxPoint x="520" y="1355" as="targetPoint" />
            <Array as="points" />
          </mxGeometry>
        </mxCell>
        <mxCell id="Wh9fC4EStsyl4PK7GZHd-53" value="&lt;font color=&quot;#828282&quot;&gt;Estat inicial&lt;/font&gt;" style="text;html=1;align=center;verticalAlign=middle;resizable=0;points=[];autosize=1;strokeColor=none;fillColor=none;" vertex="1" parent="1">
          <mxGeometry x="520" y="1090.01" width="80" height="20" as="geometry" />
        </mxCell>
      </root>
    </mxGraphModel>
  </diagram>
</mxfile>
